<svg width="194" height="27" viewBox="0 0 194 27" fill="none" xmlns="http://www.w3.org/2000/svg">
<path d="M0.314489 26L4.27472 2.14545H20.5582L19.7662 6.82784H9.2483L8.45625 11.7199H17.9375L17.1455 16.4139H7.6642L6.08011 26H0.314489ZM24.2098 26.3028C23.0761 26.3028 22.0977 26.1126 21.2746 25.7321C20.4592 25.3438 19.8613 24.7576 19.4808 23.9733C19.1081 23.189 19.0188 22.2106 19.2129 21.0381C19.3838 20.0441 19.6982 19.2094 20.1564 18.5338C20.6223 17.8505 21.193 17.2953 21.8686 16.8682C22.5519 16.4411 23.3129 16.115 24.1516 15.8898C24.9902 15.6646 25.8677 15.5132 26.7839 15.4355C27.8089 15.3423 28.6398 15.2414 29.2766 15.1327C29.9211 15.024 30.4025 14.8725 30.7209 14.6784C31.0393 14.4765 31.2334 14.197 31.3033 13.8398V13.7815C31.3964 13.1836 31.2683 12.7216 30.9189 12.3955C30.5695 12.0693 30.0453 11.9063 29.3464 11.9063C28.601 11.9063 27.9643 12.0693 27.4362 12.3955C26.9082 12.7216 26.5393 13.172 26.3297 13.7466L21.1115 13.5602C21.4376 12.4731 21.9967 11.5025 22.7888 10.6483C23.5808 9.78636 24.5864 9.1108 25.8055 8.62159C27.0324 8.12462 28.4496 7.87614 30.057 7.87614C31.1907 7.87614 32.2157 8.01203 33.132 8.28381C34.0482 8.54782 34.8209 8.93608 35.4499 9.44858C36.0866 9.95331 36.5409 10.5745 36.8126 11.3122C37.0844 12.0499 37.1427 12.8924 36.9874 13.8398L34.949 26H29.5911L30.0104 23.5074H29.8706C29.4513 24.1131 28.9582 24.6256 28.3913 25.0449C27.8322 25.4642 27.2033 25.7787 26.5044 25.9884C25.8055 26.198 25.0407 26.3028 24.2098 26.3028ZM26.6092 22.5756C27.2071 22.5756 27.774 22.4513 28.3098 22.2028C28.8456 21.9544 29.296 21.6127 29.6609 21.1778C30.0337 20.7352 30.2705 20.2227 30.3714 19.6403L30.6393 17.9398C30.4763 18.0252 30.2705 18.1028 30.022 18.1727C29.7735 18.2426 29.5095 18.3086 29.23 18.3707C28.9504 18.4251 28.6631 18.4795 28.368 18.5338C28.0807 18.5804 27.8051 18.6231 27.5411 18.6619C26.982 18.7473 26.4966 18.8794 26.0851 19.058C25.6735 19.2366 25.3435 19.4695 25.095 19.7568C24.8543 20.0364 24.7068 20.3703 24.6524 20.7585C24.5592 21.3409 24.6951 21.7913 25.0601 22.1097C25.425 22.4203 25.9414 22.5756 26.6092 22.5756ZM56.078 13.5719L50.9413 13.7116C50.9491 13.3312 50.8637 12.9973 50.6851 12.7099C50.5065 12.4149 50.2541 12.1858 49.928 12.0227C49.6018 11.8597 49.2136 11.7781 48.7632 11.7781C48.0333 11.7781 47.3771 11.9412 46.7947 12.2673C46.2201 12.5935 45.8979 13.0167 45.828 13.5369C45.7736 13.8165 45.8513 14.0611 46.0609 14.2707C46.2706 14.4726 46.7365 14.6512 47.4587 14.8065L50.8132 15.4588C52.5371 15.8005 53.7873 16.3945 54.5638 17.2409C55.3481 18.0795 55.6276 19.19 55.4024 20.5722C55.2005 21.7525 54.6803 22.7736 53.8416 23.6355C53.0107 24.4974 51.9508 25.1652 50.6618 25.6389C49.3805 26.1048 47.9634 26.3378 46.4104 26.3378C43.7857 26.3378 41.8056 25.8098 40.47 24.7537C39.1422 23.6899 38.521 22.2805 38.6064 20.5256L44.1507 20.3858C44.174 21.0458 44.3953 21.5428 44.8146 21.8767C45.2417 22.2028 45.8202 22.3737 46.5501 22.3892C47.35 22.4047 48.0411 22.2378 48.6234 21.8884C49.2058 21.5389 49.532 21.108 49.6018 20.5955C49.6484 20.2616 49.5358 20.0014 49.2641 19.8151C49 19.6287 48.507 19.4617 47.7848 19.3142L44.7564 18.7202C43.017 18.3863 41.759 17.7573 40.9825 16.8332C40.2138 15.9014 39.9498 14.7134 40.1905 13.269C40.3924 12.1198 40.8661 11.1453 41.6115 10.3455C42.3647 9.53788 43.347 8.92443 44.5584 8.50511C45.7775 8.0858 47.1675 7.87614 48.7283 7.87614C51.2286 7.87614 53.1156 8.38475 54.3891 9.40199C55.6703 10.4115 56.2333 11.8014 56.078 13.5719ZM64.7293 15.7966L63.0288 26H57.333L61.2933 2.14545H66.8026L65.2884 11.3938H65.4864C66.0611 10.2911 66.8609 9.42917 67.8859 8.80795C68.9109 8.18674 70.0989 7.87614 71.4501 7.87614C72.6925 7.87614 73.733 8.15568 74.5717 8.71477C75.4103 9.2661 76.0043 10.0465 76.3538 11.056C76.7032 12.0654 76.7653 13.2457 76.5401 14.5969L74.6299 26H68.9342L70.658 15.7151C70.8133 14.7211 70.6852 13.9446 70.2736 13.3855C69.8621 12.8264 69.2021 12.5469 68.2935 12.5469C67.6956 12.5469 67.1443 12.6789 66.6396 12.9429C66.1426 13.1991 65.7272 13.568 65.3933 14.0494C65.0594 14.5309 64.838 15.1133 64.7293 15.7966ZM78.1504 26L81.1322 8.10909H86.828L83.8462 26H78.1504ZM84.382 6.0125C83.5744 6.0125 82.9182 5.7446 82.4135 5.20881C81.9088 4.67301 81.7107 4.03239 81.8195 3.28693C81.9282 2.53371 82.3087 1.89309 82.9609 1.36506C83.6132 0.837027 84.3393 0.573012 85.1391 0.573012C85.9466 0.573012 86.595 0.837027 87.0842 1.36506C87.5812 1.89309 87.7753 2.53371 87.6666 3.28693C87.5734 4.03239 87.2007 4.67301 86.5484 5.20881C85.9039 5.7446 85.1818 6.0125 84.382 6.0125ZM95.8113 26.3378C93.9244 26.3378 92.3674 25.9495 91.1406 25.173C89.9214 24.3965 89.0634 23.3133 88.5664 21.9233C88.0694 20.5333 87.9724 18.9182 88.2752 17.0778C88.5781 15.2453 89.2031 13.6379 90.1505 12.2557C91.0978 10.8735 92.3092 9.79801 93.7846 9.02926C95.26 8.26051 96.9334 7.87614 98.8048 7.87614C100.684 7.87614 102.233 8.26439 103.452 9.04091C104.679 9.81742 105.541 10.9007 106.038 12.2906C106.543 13.6806 106.644 15.2996 106.341 17.1477C106.038 18.9803 105.409 20.5877 104.454 21.9699C103.499 23.3443 102.287 24.4159 100.82 25.1847C99.3522 25.9534 97.6827 26.3378 95.8113 26.3378ZM96.4519 22.0398C97.1508 22.0398 97.7759 21.8301 98.3272 21.4108C98.8863 20.9915 99.3561 20.4052 99.7366 19.652C100.117 18.8988 100.389 18.0252 100.552 17.0313C100.715 16.0528 100.731 15.1948 100.599 14.4571C100.474 13.7116 100.21 13.1331 99.8065 12.7216C99.4027 12.3023 98.8552 12.0926 98.1641 12.0926C97.4653 12.0926 96.8363 12.3062 96.2772 12.7332C95.7181 13.1526 95.2483 13.7388 94.8678 14.492C94.4951 15.2375 94.2272 16.1111 94.0641 17.1128C93.9011 18.0912 93.8816 18.9492 94.0059 19.6869C94.1301 20.4246 94.398 21.0031 94.8096 21.4224C95.2211 21.834 95.7686 22.0398 96.4519 22.0398ZM115.211 15.7966L113.51 26H107.814L110.796 8.10909H116.212L115.676 11.3938H115.875C116.434 10.2989 117.245 9.44081 118.309 8.8196C119.373 8.19063 120.569 7.87614 121.896 7.87614C123.147 7.87614 124.191 8.15568 125.03 8.71477C125.868 9.27386 126.462 10.0581 126.812 11.0676C127.161 12.0693 127.219 13.2457 126.986 14.5969L125.076 26H119.38L121.093 15.7151C121.264 14.7289 121.143 13.9562 120.732 13.3972C120.328 12.8303 119.668 12.5469 118.751 12.5469C118.154 12.5469 117.606 12.6789 117.109 12.9429C116.62 13.1991 116.208 13.568 115.875 14.0494C115.548 14.5309 115.327 15.1133 115.211 15.7966ZM128.568 26L132.528 2.14545H138.293L136.709 11.7199H146.109L147.693 2.14545H153.447L149.487 26H143.733L145.317 16.4139H135.917L134.333 26H128.568ZM165.928 18.2776L167.628 8.10909H173.312L170.331 26H164.903L165.45 22.6688H165.264C164.712 23.7636 163.901 24.6333 162.829 25.2778C161.758 25.9146 160.55 26.233 159.207 26.233C157.988 26.233 156.963 25.9534 156.132 25.3943C155.301 24.8352 154.711 24.0548 154.362 23.0531C154.02 22.0437 153.958 20.8634 154.175 19.5122L156.085 8.10909H161.781L160.069 18.394C159.921 19.3647 160.049 20.1295 160.453 20.6886C160.865 21.2477 161.509 21.5273 162.387 21.5273C162.954 21.5273 163.486 21.403 163.983 21.1545C164.479 20.8983 164.899 20.5295 165.24 20.048C165.59 19.5588 165.819 18.9687 165.928 18.2776ZM173.956 26L177.916 2.14545H183.612L182.133 11.1724H182.249C182.56 10.6289 182.971 10.1047 183.484 9.6C184.004 9.09527 184.629 8.68371 185.359 8.36534C186.089 8.0392 186.924 7.87614 187.863 7.87614C189.106 7.87614 190.212 8.20227 191.183 8.85454C192.154 9.50682 192.86 10.5124 193.303 11.8713C193.745 13.2302 193.792 14.9618 193.443 17.0662C193.109 19.0929 192.507 20.7896 191.637 22.1563C190.767 23.5229 189.731 24.5479 188.527 25.2313C187.331 25.9146 186.073 26.2562 184.753 26.2562C183.853 26.2562 183.095 26.1087 182.482 25.8136C181.876 25.5186 181.391 25.1303 181.026 24.6489C180.669 24.1674 180.42 23.651 180.281 23.0997H180.059L179.593 26H173.956ZM181.026 17.0545C180.871 18.0174 180.863 18.8561 181.003 19.5705C181.15 20.2848 181.434 20.8401 181.853 21.2361C182.28 21.6243 182.843 21.8185 183.542 21.8185C184.241 21.8185 184.866 21.6243 185.417 21.2361C185.969 20.8401 186.431 20.2848 186.803 19.5705C187.176 18.8561 187.44 18.0174 187.595 17.0545C187.751 16.0917 187.758 15.2569 187.619 14.5503C187.487 13.8437 187.211 13.2962 186.792 12.908C186.372 12.5197 185.809 12.3256 185.103 12.3256C184.404 12.3256 183.775 12.5158 183.216 12.8963C182.665 13.2768 182.199 13.8204 181.818 14.527C181.445 15.2336 181.181 16.0761 181.026 17.0545Z" fill="#0D3356"/>
</svg>
